<svg xmlns="http://www.w3.org/2000/svg" width="1200" height="680" viewBox="0 0 1200 680" role="img" aria-label="Preview da tela inicial">
  <defs>
    <linearGradient id="bg" x1="0" y1="0" x2="1" y2="1">
      <stop offset="0%" stop-color="#f4f9ff" />
      <stop offset="100%" stop-color="#e6f0ff" />
    </linearGradient>
  </defs>
  <rect width="1200" height="680" fill="url(#bg)" />
  <rect x="0" y="0" width="1200" height="78" fill="#003087" />
  <text x="36" y="48" fill="#ffffff" font-size="28" font-family="Arial, sans-serif" font-weight="700">Finance Hub IA</text>
  <rect x="24" y="110" width="250" height="546" rx="14" fill="#ffffff" stroke="#d7e3f7" />
  <text x="44" y="146" fill="#1f3c70" font-size="20" font-family="Arial, sans-serif" font-weight="700">Bots IA</text>
  <rect x="44" y="172" width="210" height="42" rx="10" fill="#eef5ff" />
  <text x="60" y="199" fill="#003087" font-size="16" font-family="Arial, sans-serif">Query Analyzer</text>
  <rect x="44" y="224" width="210" height="42" rx="10" fill="#eef5ff" />
  <text x="60" y="251" fill="#003087" font-size="16" font-family="Arial, sans-serif">Query Build</text>
  <rect x="300" y="110" width="876" height="546" rx="14" fill="#ffffff" stroke="#d7e3f7" />
  <text x="332" y="154" fill="#1f3c70" font-size="30" font-family="Arial, sans-serif" font-weight="700">Tela Inicial</text>
  <text x="332" y="188" fill="#4b5f85" font-size="18" font-family="Arial, sans-serif">Visao geral dos bots, historico e analytics.</text>
  <rect x="332" y="220" width="186" height="112" rx="12" fill="#f7fbff" stroke="#d7e3f7" />
  <rect x="534" y="220" width="186" height="112" rx="12" fill="#f7fbff" stroke="#d7e3f7" />
  <rect x="736" y="220" width="186" height="112" rx="12" fill="#f7fbff" stroke="#d7e3f7" />
  <rect x="938" y="220" width="186" height="112" rx="12" fill="#f7fbff" stroke="#d7e3f7" />
  <text x="356" y="282" fill="#003087" font-size="16" font-family="Arial, sans-serif">Bots ativos</text>
  <text x="560" y="282" fill="#003087" font-size="16" font-family="Arial, sans-serif">Analises</text>
  <text x="760" y="282" fill="#003087" font-size="16" font-family="Arial, sans-serif">Custo dry-run</text>
  <text x="960" y="282" fill="#003087" font-size="16" font-family="Arial, sans-serif">Ultimo acesso</text>
  <rect x="332" y="360" width="792" height="260" rx="12" fill="#fbfdff" stroke="#d7e3f7" />
  <text x="356" y="402" fill="#4b5f85" font-size="18" font-family="Arial, sans-serif">Cards dos bots e atalhos de navegacao.</text>
</svg>
