<svg xmlns="http://www.w3.org/2000/svg" width="1200" height="680" viewBox="0 0 1200 680" role="img" aria-label="Preview da tela Query Build">
  <defs>
    <linearGradient id="bg3" x1="0" y1="0" x2="1" y2="1">
      <stop offset="0%" stop-color="#f8fbff" />
      <stop offset="100%" stop-color="#eef6ff" />
    </linearGradient>
  </defs>
  <rect width="1200" height="680" fill="url(#bg3)" />
  <rect x="0" y="0" width="1200" height="78" fill="#003087" />
  <text x="36" y="48" fill="#ffffff" font-size="28" font-family="Arial, sans-serif" font-weight="700">Finance Hub IA</text>
  <rect x="24" y="110" width="250" height="546" rx="14" fill="#ffffff" stroke="#d7e3f7" />
  <text x="44" y="146" fill="#1f3c70" font-size="20" font-family="Arial, sans-serif" font-weight="700">Query Build</text>
  <rect x="300" y="110" width="876" height="546" rx="14" fill="#ffffff" stroke="#d7e3f7" />
  <text x="332" y="154" fill="#1f3c70" font-size="30" font-family="Arial, sans-serif" font-weight="700">Gerar SQL por linguagem natural</text>
  <rect x="332" y="188" width="380" height="54" rx="10" fill="#f7fbff" stroke="#d7e3f7" />
  <text x="352" y="220" fill="#003087" font-size="16" font-family="Arial, sans-serif">Project ID</text>
  <rect x="744" y="188" width="380" height="54" rx="10" fill="#f7fbff" stroke="#d7e3f7" />
  <text x="764" y="220" fill="#003087" font-size="16" font-family="Arial, sans-serif">Dataset hint com validacao</text>
  <rect x="332" y="260" width="792" height="160" rx="12" fill="#fbfdff" stroke="#d7e3f7" />
  <text x="352" y="296" fill="#4b5f85" font-size="16" font-family="Arial, sans-serif">Descreva a necessidade e o bot gera SQL com dry-run e amostra.</text>
  <rect x="332" y="444" width="792" height="140" rx="12" fill="#fbfdff" stroke="#d7e3f7" />
  <text x="352" y="480" fill="#4b5f85" font-size="16" font-family="Arial, sans-serif">Saida: SQL gerada, explicacao, warnings, custo e sample.</text>
  <rect x="332" y="600" width="220" height="48" rx="24" fill="#003087" />
  <text x="362" y="630" fill="#ffffff" font-size="16" font-family="Arial, sans-serif" font-weight="700">Gerar SQL</text>
</svg>
