<svg xmlns="http://www.w3.org/2000/svg" width="1200" height="680" viewBox="0 0 1200 680" role="img" aria-label="Preview da tela Query Analyzer">
  <defs>
    <linearGradient id="bg2" x1="0" y1="0" x2="1" y2="1">
      <stop offset="0%" stop-color="#f6fbff" />
      <stop offset="100%" stop-color="#ebf4ff" />
    </linearGradient>
  </defs>
  <rect width="1200" height="680" fill="url(#bg2)" />
  <rect x="0" y="0" width="1200" height="78" fill="#003087" />
  <text x="36" y="48" fill="#ffffff" font-size="28" font-family="Arial, sans-serif" font-weight="700">Finance Hub IA</text>
  <rect x="24" y="110" width="250" height="546" rx="14" fill="#ffffff" stroke="#d7e3f7" />
  <text x="44" y="146" fill="#1f3c70" font-size="20" font-family="Arial, sans-serif" font-weight="700">Query Analyzer</text>
  <rect x="300" y="110" width="876" height="546" rx="14" fill="#ffffff" stroke="#d7e3f7" />
  <text x="332" y="154" fill="#1f3c70" font-size="30" font-family="Arial, sans-serif" font-weight="700">Analisar SQL existente</text>
  <rect x="332" y="182" width="792" height="56" rx="10" fill="#f7fbff" stroke="#d7e3f7" />
  <text x="352" y="216" fill="#4b5f85" font-size="16" font-family="Arial, sans-serif">Cole a query para validar dataset, tabelas e custo via dry-run.</text>
  <rect x="332" y="254" width="380" height="54" rx="10" fill="#f7fbff" stroke="#d7e3f7" />
  <text x="352" y="286" fill="#003087" font-size="16" font-family="Arial, sans-serif">Project ID - bloqueado</text>
  <rect x="744" y="254" width="380" height="54" rx="10" fill="#f7fbff" stroke="#d7e3f7" />
  <text x="764" y="286" fill="#003087" font-size="16" font-family="Arial, sans-serif">Dataset hint - bloqueado</text>
  <rect x="332" y="324" width="792" height="170" rx="12" fill="#fbfdff" stroke="#d7e3f7" />
  <text x="352" y="360" fill="#4b5f85" font-size="16" font-family="Arial, sans-serif">Resultado com score, anti-padroes, query otimizada e otimizações aplicadas.</text>
  <rect x="332" y="520" width="180" height="48" rx="24" fill="#003087" />
  <text x="357" y="550" fill="#ffffff" font-size="16" font-family="Arial, sans-serif" font-weight="700">Analisar</text>
  <rect x="534" y="520" width="590" height="48" rx="24" fill="#e8fff2" stroke="#8ee0b0" />
  <text x="558" y="550" fill="#006c3f" font-size="15" font-family="Arial, sans-serif">Validacao de contexto concluida. Pronto para analise.</text>
</svg>
